# xmcd
#
# Track frame offsets:
#	150
#	22079
#	41793
#	59681
#	82226
#	99454
#	118867
#	140907
#	163945
#	179104
#	192265
#	209469
#	232927
#
# Disc length: 3439 seconds
#
# Revision: 6
# Processed by: cddbd v1.5.1PL0 Copyright (c) Steve Scherf et al.
# Submitted via: dBpowerAMP V4.0
#
DISCID=cf0d6d0d
DTITLE=Big and Rich - Horse Of A Different Color
DYEAR=2004
DGENRE=Country
TTITLE0=Rollin' (Ballad of Big and Rich)
TTITLE1=Wild West Show
TTITLE2=Big Time
TTITLE3=Kick My Ass
TTITLE4=Six Foot Town
TTITLE5=Holy Water
TTITLE6=Saved
TTITLE7=Real World
TTITLE8=Save a Horse (Ride a Cowboy)
TTITLE9=Drinkin' 'Bout You
TTITLE10=Love Train
TTITLE11=Deadwood Mountain
TTITLE12=Live This Life
EXTD=
EXTT0=
EXTT1=
EXTT2=
EXTT3=
EXTT4=
EXTT5=
EXTT6=
EXTT7=
EXTT8=
EXTT9=
EXTT10=
EXTT11=
EXTT12=
PLAYORDER=
